<svg width="31" height="30" viewBox="0 0 31 30" fill="none" xmlns="http://www.w3.org/2000/svg">
<path d="M15.1797 2.79071C19.1913 2.79071 19.5401 2.79071 21.1099 2.79071C22.5053 2.79071 23.3774 3.13952 23.9006 3.31394C24.5983 3.66278 25.1215 3.83721 25.6448 4.36046C26.1681 4.88372 26.5169 5.40697 26.6913 6.10465C26.8657 6.6279 27.2146 7.32559 27.2146 8.89535C27.2146 10.4651 27.2146 10.9884 27.2146 14.8256C27.2146 18.8372 27.2146 19.186 27.2146 20.7558C27.2146 22.1511 26.8657 23.0232 26.6913 23.5465C26.3425 24.2442 26.1681 24.7674 25.6448 25.2907C25.1215 25.8139 24.5983 26.1628 23.9006 26.3372C23.3774 26.5116 22.6797 26.8604 21.1099 26.8604C19.5401 26.8604 19.0169 26.8604 15.1797 26.8604C11.3425 26.8604 10.8192 26.8604 9.24947 26.8604C7.85412 26.8604 6.98202 26.5116 6.45876 26.3372C5.76109 25.9884 5.23783 25.8139 4.71458 25.2907C4.19132 24.7674 3.84248 24.2442 3.66806 23.5465C3.49364 23.0232 3.14482 22.3256 3.14482 20.7558C3.14482 19.186 3.14482 18.6628 3.14482 14.8256C3.14482 10.8139 3.14482 10.4651 3.14482 8.89535C3.14482 7.50001 3.49364 6.6279 3.66806 6.10465C4.01689 5.40697 4.19132 4.88372 4.71458 4.36046C5.23783 3.83721 5.76109 3.48836 6.45876 3.31394C6.98202 3.13952 7.6797 2.79071 9.24947 2.79071C10.6448 2.79071 11.1681 2.79071 15.1797 2.79071ZM15.1797 0C11.1681 0 10.6448 1.06431e-05 9.07504 0.174429C7.50527 0.174429 6.45875 0.523255 5.41224 0.872092C4.36573 1.22093 3.66806 1.74418 2.79596 2.61628C1.92387 3.48837 1.40062 4.18604 1.05178 5.23255C0.702943 6.10465 0.354117 7.32559 0.354117 8.89535C0.354117 10.4651 0.179688 10.9884 0.179688 15C0.179688 19.0116 0.179698 19.5349 0.354117 21.1046C0.354117 22.6744 0.702943 23.7209 1.05178 24.7674C1.40062 25.814 1.92387 26.5116 2.79596 27.3837C3.66806 28.2558 4.36573 28.7791 5.41224 29.1279C6.28433 29.4767 7.50527 29.8256 9.07504 29.8256C10.6448 29.8256 11.1681 30 15.1797 30C19.1913 30 19.7146 30 21.2843 29.8256C22.8541 29.8256 23.9006 29.4767 24.9471 29.1279C25.9936 28.7791 26.6913 28.2558 27.5634 27.3837C28.4355 26.5116 28.9588 25.814 29.3076 24.7674C29.6564 23.8954 30.0053 22.6744 30.0053 21.1046C30.0053 19.5349 30.1797 19.0116 30.1797 15C30.1797 10.9884 30.1797 10.4651 30.0053 8.89535C30.0053 7.32559 29.6564 6.27907 29.3076 5.23255C28.9588 4.18604 28.4355 3.48837 27.5634 2.61628C26.6913 1.74418 25.9936 1.22093 24.9471 0.872092C24.075 0.523255 22.8541 0.174429 21.2843 0.174429C19.7146 1.06431e-05 19.1913 0 15.1797 0Z" fill="#080311"/>
<path d="M15.1803 7.32812C10.9942 7.32812 7.50586 10.8165 7.50586 15.0025C7.50586 19.1886 10.9942 22.6769 15.1803 22.6769C19.3663 22.6769 22.8547 19.1886 22.8547 15.0025C22.8547 10.8165 19.3663 7.32812 15.1803 7.32812ZM15.1803 19.8862C12.3896 19.8862 10.2966 17.6188 10.2966 15.0025C10.2966 12.2118 12.564 10.1188 15.1803 10.1188C17.7965 10.1188 20.064 12.3863 20.064 15.0025C20.064 17.6188 17.7965 19.8862 15.1803 19.8862Z" fill="#080311"/>
<path d="M23.0293 8.72274C23.9926 8.72274 24.7735 7.94185 24.7735 6.97856C24.7735 6.01527 23.9926 5.23438 23.0293 5.23438C22.0661 5.23438 21.2852 6.01527 21.2852 6.97856C21.2852 7.94185 22.0661 8.72274 23.0293 8.72274Z" fill="#080311"/>
</svg>
